<svg xmlns="http://www.w3.org/2000/svg" viewBox="0 0 256 256" role="img" aria-labelledby="title desc">
  <title id="title">Human Intervention — Liquid Light</title>
  <desc id="desc">Premium abstract icon: Bridge / threshold.</desc>
  
    <defs>
      <linearGradient id="g-human-intervention" x1="0" y1="0" x2="1" y2="1">
        <stop offset="0" stop-color="#0A84FF"/>
        <stop offset="0.62" stop-color="#7B5CFF"/>
        <stop offset="1" stop-color="#1B3A8C"/>
      </linearGradient>
      <linearGradient id="glass-human-intervention" x1="0" y1="0" x2="1" y2="1">
        <stop offset="0" stop-color="#FFFFFF" stop-opacity="0.78"/>
        <stop offset="0.45" stop-color="#FFFFFF" stop-opacity="0.34"/>
        <stop offset="1" stop-color="#0A84FF" stop-opacity="0.14"/>
      </linearGradient>
      <radialGradient id="orb-human-intervention" cx="32%" cy="24%" r="78%">
        <stop offset="0" stop-color="#FFFFFF" stop-opacity="0.92"/>
        <stop offset="0.16" stop-color="#0A84FF"/>
        <stop offset="0.62" stop-color="#7B5CFF"/>
        <stop offset="1" stop-color="#1B3A8C"/>
      </radialGradient>
      <filter id="shadow-human-intervention" x="-40%" y="-40%" width="180%" height="180%">
        <feDropShadow dx="0" dy="12" stdDeviation="12" flood-color="#1B3A8C" flood-opacity="0.18"/>
      </filter>
      <filter id="blur-human-intervention" x="-50%" y="-50%" width="200%" height="200%">
        <feGaussianBlur stdDeviation="9"/>
      </filter>
    </defs>
    
  <rect width="256" height="256" rx="64" fill="#F5F5F7"/>
  <circle cx="206" cy="42" r="78" fill="#7B5CFF" opacity="0.10" filter="url(#blur-human-intervention)"/>
  <circle cx="42" cy="216" r="72" fill="#0A84FF" opacity="0.10" filter="url(#blur-human-intervention)"/>
  <rect x="20" y="20" width="216" height="216" rx="52" fill="url(#glass-human-intervention)" stroke="#FFFFFF" stroke-opacity="0.58"/>
  
  <g filter="url(#shadow-human-intervention)">
    <rect x="55" y="139" width="36" height="58" rx="14" fill="#1B3A8C"/>
    <rect x="165" y="139" width="36" height="58" rx="14" fill="#1B3A8C"/>
    <path d="M70 146c12-50 104-50 116 0" fill="none" stroke="url(#g-human-intervention)" stroke-width="22" stroke-linecap="round"/>
    <path d="M79 145c14-35 84-35 98 0" fill="none" stroke="#FFF" stroke-opacity=".28" stroke-width="3"/>
    <circle cx="72" cy="112" r="12" fill="#2BB3B1"/>
    <circle cx="184" cy="112" r="12" fill="#7B5CFF"/>
  </g>
</svg>