<svg xmlns="http://www.w3.org/2000/svg" viewBox="0 0 256 256" role="img" aria-labelledby="title desc">
  <title id="title">Video Learning — Liquid Light</title>
  <desc id="desc">Premium abstract icon: Editorial frame.</desc>
  
    <defs>
      <linearGradient id="g-video" x1="0" y1="0" x2="1" y2="1">
        <stop offset="0" stop-color="#0A84FF"/>
        <stop offset="0.62" stop-color="#7B5CFF"/>
        <stop offset="1" stop-color="#1B3A8C"/>
      </linearGradient>
      <linearGradient id="glass-video" x1="0" y1="0" x2="1" y2="1">
        <stop offset="0" stop-color="#FFFFFF" stop-opacity="0.78"/>
        <stop offset="0.45" stop-color="#FFFFFF" stop-opacity="0.34"/>
        <stop offset="1" stop-color="#0A84FF" stop-opacity="0.14"/>
      </linearGradient>
      <radialGradient id="orb-video" cx="32%" cy="24%" r="78%">
        <stop offset="0" stop-color="#FFFFFF" stop-opacity="0.92"/>
        <stop offset="0.16" stop-color="#0A84FF"/>
        <stop offset="0.62" stop-color="#7B5CFF"/>
        <stop offset="1" stop-color="#1B3A8C"/>
      </radialGradient>
      <filter id="shadow-video" x="-40%" y="-40%" width="180%" height="180%">
        <feDropShadow dx="0" dy="12" stdDeviation="12" flood-color="#1B3A8C" flood-opacity="0.18"/>
      </filter>
      <filter id="blur-video" x="-50%" y="-50%" width="200%" height="200%">
        <feGaussianBlur stdDeviation="9"/>
      </filter>
    </defs>
    
  <rect width="256" height="256" rx="64" fill="#F5F5F7"/>
  <circle cx="206" cy="42" r="78" fill="#7B5CFF" opacity="0.10" filter="url(#blur-video)"/>
  <circle cx="42" cy="216" r="72" fill="#0A84FF" opacity="0.10" filter="url(#blur-video)"/>
  <rect x="20" y="20" width="216" height="216" rx="52" fill="url(#glass-video)" stroke="#FFFFFF" stroke-opacity="0.58"/>
  
  <g filter="url(#shadow-video)">
    <rect x="51" y="66" width="154" height="112" rx="26" fill="#1B3A8C" stroke="#FFF" stroke-opacity=".26"/>
    <rect x="59" y="74" width="138" height="84" rx="19" fill="url(#g-video)" opacity=".88"/>
    <path d="m119 99 35 22-35 22Z" fill="#FFF" fill-opacity=".90"/>
    <rect x="59" y="165" width="138" height="5" rx="2.5" fill="#FFFFFF" fill-opacity=".35"/>
    <rect x="59" y="165" width="79" height="5" rx="2.5" fill="#2BB3B1"/>
    <circle cx="138" cy="167.5" r="7" fill="#7B5CFF"/>
    <path d="M78 185h100" stroke="#1D1D1F" stroke-opacity=".42" stroke-width="3" stroke-linecap="round" stroke-dasharray="18 8"/>
  </g>
</svg>